# xmcd CD database file generated by Grip 2.96
# 
# Track frame offsets:
#       150
#       14407
#       32246
#       52591
#       67318
#       89157
#       112219
#       141899
#       158648
#       188368
#       215102
#       254617
#       276619
#       294258
# 
# Disc length: 4258 seconds
# 
# Revision: 0
# Processed by: cddbd v1.4b42PL1 Copyright (c) Steve Scherf et al.
# Submitted via: Grip 2.96
# 
DISCID=dd10a00e
DTITLE=Tom Waits - Asylum Years
DYEAR=1900
DGENRE=
TTITLE0=Diamonds On My Windshield
TTITLE1=(Looking For) The Heart Of Saturday Night
TTITLE2=Martha
TTITLE3=The Ghosts Of Saturday Night
TTITLE4=Grapefruit Moon
TTITLE5=Small Change
TTITLE6=Burma Shave
TTITLE7=I Never Talk To Strangers
TTITLE8=Tom Trauberts's Blues
TTITLE9=Blue Valentines
TTITLE10=Potter's Field
TTITLE11=Kentucky Avenue
TTITLE12=Somewhere (From 'WestSideStory')
TTITLE13=Rudy'a Arms
EXTD=
EXTT0=
EXTT1=
EXTT2=
EXTT3=
EXTT4=
EXTT5=
EXTT6=
EXTT7=
EXTT8=
EXTT9=
EXTT10=
EXTT11=
EXTT12=
EXTT13=
PLAYORDER=
